<svg xmlns="http://www.w3.org/2000/svg" xmlns:xlink="http://www.w3.org/1999/xlink" width="100" zoomAndPan="magnify" viewBox="0 0 75 74.999997" height="100" preserveAspectRatio="xMidYMid meet" version="1.0"><defs><clipPath id="4476bf2e65"><path d="M 22.5 20.945312 L 52.5 20.945312 L 52.5 50.195312 L 22.5 50.195312 Z M 22.5 20.945312 " clip-rule="nonzero"/></clipPath></defs><rect x="-7.5" width="90" fill="#ffffff" y="-7.5" height="89.999996" fill-opacity="1"/><rect x="-7.5" width="90" fill="#ffffff" y="-7.5" height="89.999996" fill-opacity="1"/><g clip-path="url(#4476bf2e65)"><path fill="#000000" d="M 28.632812 24.984375 L 29.3125 26.789062 C 29.335938 26.84375 29.382812 26.878906 29.441406 26.882812 L 31.355469 26.976562 C 31.484375 26.984375 31.539062 27.148438 31.4375 27.230469 L 29.941406 28.441406 C 29.898438 28.476562 29.878906 28.535156 29.894531 28.589844 L 30.398438 30.453125 C 30.429688 30.582031 30.292969 30.683594 30.183594 30.609375 L 28.578125 29.554688 C 28.53125 29.519531 28.472656 29.519531 28.425781 29.554688 L 26.820312 30.609375 C 26.710938 30.683594 26.570312 30.582031 26.605469 30.453125 L 27.109375 28.589844 C 27.125 28.535156 27.105469 28.476562 27.0625 28.441406 L 25.566406 27.230469 C 25.464844 27.148438 25.519531 26.984375 25.648438 26.976562 L 27.5625 26.882812 C 27.621094 26.878906 27.667969 26.84375 27.6875 26.789062 L 28.371094 24.984375 C 28.414062 24.863281 28.589844 24.863281 28.632812 24.984375 Z M 46.011719 21.066406 L 46.691406 22.871094 C 46.714844 22.925781 46.761719 22.960938 46.820312 22.964844 L 48.734375 23.058594 C 48.863281 23.0625 48.917969 23.230469 48.816406 23.3125 L 47.320312 24.523438 C 47.277344 24.558594 47.257812 24.613281 47.273438 24.671875 L 47.777344 26.535156 C 47.808594 26.660156 47.671875 26.765625 47.5625 26.691406 L 45.957031 25.632812 C 45.910156 25.601562 45.851562 25.601562 45.804688 25.632812 L 44.199219 26.691406 C 44.089844 26.765625 43.949219 26.660156 43.984375 26.535156 L 44.488281 24.671875 C 44.503906 24.613281 44.484375 24.558594 44.441406 24.523438 L 42.945312 23.3125 C 42.84375 23.230469 42.898438 23.0625 43.027344 23.058594 L 44.941406 22.964844 C 45 22.960938 45.046875 22.925781 45.066406 22.871094 L 45.746094 21.066406 C 45.792969 20.945312 45.96875 20.945312 46.011719 21.066406 Z M 49.589844 30.511719 L 50.269531 32.316406 C 50.289062 32.371094 50.335938 32.40625 50.394531 32.410156 L 52.308594 32.503906 C 52.4375 32.507812 52.492188 32.675781 52.390625 32.757812 L 50.898438 33.96875 C 50.851562 34.003906 50.832031 34.058594 50.847656 34.117188 L 51.351562 35.980469 C 51.386719 36.105469 51.246094 36.210938 51.136719 36.136719 L 49.535156 35.078125 C 49.484375 35.046875 49.425781 35.046875 49.378906 35.078125 L 47.777344 36.136719 C 47.667969 36.210938 47.527344 36.105469 47.5625 35.980469 L 48.0625 34.117188 C 48.078125 34.058594 48.0625 34.003906 48.015625 33.96875 L 46.523438 32.757812 C 46.421875 32.675781 46.472656 32.507812 46.605469 32.503906 L 48.519531 32.410156 C 48.574219 32.40625 48.625 32.371094 48.644531 32.316406 L 49.324219 30.511719 C 49.371094 30.390625 49.542969 30.390625 49.589844 30.511719 Z M 25.675781 34.253906 L 26.355469 36.058594 C 26.375 36.113281 26.425781 36.148438 26.480469 36.152344 L 28.394531 36.246094 C 28.527344 36.253906 28.578125 36.417969 28.476562 36.5 L 26.984375 37.710938 C 26.9375 37.746094 26.921875 37.800781 26.9375 37.859375 L 27.4375 39.722656 C 27.472656 39.847656 27.332031 39.953125 27.222656 39.878906 L 25.621094 38.820312 C 25.574219 38.789062 25.515625 38.789062 25.464844 38.820312 L 23.863281 39.878906 C 23.753906 39.953125 23.613281 39.847656 23.648438 39.722656 L 24.152344 37.859375 C 24.167969 37.800781 24.148438 37.746094 24.101562 37.710938 L 22.609375 36.5 C 22.507812 36.417969 22.5625 36.253906 22.691406 36.246094 L 24.605469 36.152344 C 24.664062 36.148438 24.710938 36.113281 24.730469 36.058594 L 25.410156 34.253906 C 25.457031 34.132812 25.628906 34.132812 25.675781 34.253906 Z M 34.796875 40.753906 C 35.113281 40.433594 35.632812 40.433594 35.953125 40.753906 L 36.78125 41.589844 L 39.019531 39.332031 C 39.335938 39.011719 39.855469 39.011719 40.175781 39.332031 C 40.175781 39.410156 40.730469 39.9375 40.175781 40.496094 L 37.375 43.320312 C 36.96875 43.730469 36.425781 43.5625 36.066406 43.199219 L 34.796875 41.917969 C 34.480469 41.597656 34.480469 41.074219 34.796875 40.753906 Z M 46.136719 40.183594 L 44.835938 39.679688 C 44.796875 39.664062 44.769531 39.632812 44.757812 39.59375 C 44.578125 38.859375 44.289062 38.160156 43.902344 37.515625 C 43.882812 37.476562 43.878906 37.4375 43.898438 37.398438 L 44.464844 36.109375 C 44.484375 36.0625 44.476562 36.007812 44.4375 35.972656 L 42.890625 34.410156 C 42.855469 34.375 42.800781 34.363281 42.753906 34.386719 L 41.472656 34.957031 C 41.4375 34.972656 41.394531 34.972656 41.359375 34.949219 C 40.71875 34.558594 40.023438 34.269531 39.300781 34.089844 C 39.257812 34.078125 39.226562 34.050781 39.210938 34.011719 L 38.710938 32.699219 C 38.691406 32.648438 38.648438 32.617188 38.59375 32.617188 L 36.40625 32.617188 C 36.351562 32.617188 36.308594 32.648438 36.289062 32.699219 L 35.789062 34.011719 C 35.773438 34.050781 35.742188 34.078125 35.699219 34.089844 C 34.976562 34.269531 34.28125 34.558594 33.640625 34.949219 C 33.605469 34.972656 33.5625 34.972656 33.527344 34.957031 L 32.246094 34.386719 C 32.199219 34.363281 32.144531 34.375 32.109375 34.410156 L 30.5625 35.972656 C 30.523438 36.007812 30.515625 36.0625 30.535156 36.109375 L 31.101562 37.398438 C 31.121094 37.4375 31.117188 37.480469 31.097656 37.515625 C 30.710938 38.160156 30.421875 38.859375 30.242188 39.59375 C 30.230469 39.632812 30.203125 39.664062 30.164062 39.679688 L 28.863281 40.183594 C 28.8125 40.203125 28.78125 40.25 28.78125 40.300781 L 28.78125 42.507812 C 28.78125 42.5625 28.8125 42.605469 28.863281 42.625 L 30.164062 43.132812 C 30.203125 43.148438 30.230469 43.175781 30.242188 43.21875 C 30.421875 43.949219 30.710938 44.652344 31.09375 45.296875 C 31.117188 45.332031 31.121094 45.375 31.101562 45.414062 L 30.535156 46.699219 C 30.515625 46.75 30.523438 46.800781 30.5625 46.839844 L 32.109375 48.398438 C 32.144531 48.4375 32.199219 48.449219 32.246094 48.425781 L 33.527344 47.855469 C 33.5625 47.835938 33.605469 47.839844 33.640625 47.859375 C 34.28125 48.25 34.976562 48.542969 35.699219 48.722656 C 35.742188 48.730469 35.773438 48.757812 35.789062 48.800781 L 36.289062 50.113281 C 36.308594 50.164062 36.351562 50.195312 36.40625 50.195312 L 38.59375 50.195312 C 38.648438 50.195312 38.691406 50.164062 38.710938 50.113281 L 39.210938 48.800781 C 39.226562 48.761719 39.257812 48.734375 39.296875 48.722656 C 40.023438 48.542969 40.71875 48.25 41.359375 47.859375 C 41.394531 47.839844 41.4375 47.835938 41.476562 47.855469 L 42.753906 48.425781 C 42.800781 48.449219 42.855469 48.4375 42.890625 48.398438 L 44.4375 46.839844 C 44.476562 46.800781 44.484375 46.75 44.464844 46.699219 L 43.898438 45.410156 C 43.878906 45.375 43.882812 45.332031 43.902344 45.296875 C 44.289062 44.652344 44.578125 43.949219 44.757812 43.21875 C 44.769531 43.179688 44.796875 43.148438 44.835938 43.132812 L 46.136719 42.625 C 46.1875 42.605469 46.21875 42.5625 46.21875 42.507812 L 46.21875 40.300781 C 46.21875 40.25 46.1875 40.203125 46.136719 40.183594 Z M 37.484375 45.992188 C 34.929688 45.992188 32.855469 43.902344 32.855469 41.324219 C 32.855469 38.746094 34.929688 36.65625 37.484375 36.65625 C 40.042969 36.65625 42.117188 38.746094 42.117188 41.324219 C 42.117188 43.902344 40.042969 45.992188 37.484375 45.992188 Z M 37.46875 23.027344 C 35.707031 23.027344 34.277344 24.464844 34.277344 26.242188 C 34.277344 28.019531 35.707031 29.460938 37.46875 29.460938 C 34.769531 29.460938 32.46875 31.167969 31.566406 33.566406 C 31.882812 33.347656 32.292969 33.308594 32.652344 33.46875 L 33.527344 33.859375 C 34.003906 33.605469 34.5 33.398438 35.015625 33.238281 L 35.359375 32.335938 C 35.527344 31.898438 35.941406 31.613281 36.40625 31.613281 L 38.59375 31.613281 C 39.058594 31.613281 39.472656 31.898438 39.640625 32.335938 L 39.984375 33.238281 C 40.5 33.398438 40.996094 33.605469 41.472656 33.859375 L 42.347656 33.46875 C 42.675781 33.320312 43.050781 33.34375 43.351562 33.515625 C 42.4375 31.144531 40.148438 29.460938 37.46875 29.460938 C 39.234375 29.460938 40.660156 28.019531 40.660156 26.242188 C 40.660156 24.464844 39.230469 23.027344 37.46875 23.027344 Z M 37.46875 23.027344 " fill-opacity="1" fill-rule="evenodd"/></g></svg>