<svg xmlns="http://www.w3.org/2000/svg" xmlns:xlink="http://www.w3.org/1999/xlink" width="100" zoomAndPan="magnify" viewBox="0 0 75 74.999997" height="100" preserveAspectRatio="xMidYMid meet" version="1.0"><defs><clipPath id="a1d83c49ee"><path d="M 23.570312 22.5 L 51.320312 22.5 L 51.320312 52.5 L 23.570312 52.5 Z M 23.570312 22.5 " clip-rule="nonzero"/></clipPath></defs><rect x="-7.5" width="90" fill="#ffffff" y="-7.5" height="89.999996" fill-opacity="1"/><rect x="-7.5" width="90" fill="#ffffff" y="-7.5" height="89.999996" fill-opacity="1"/><g clip-path="url(#a1d83c49ee)"><path fill="#000000" d="M 51.261719 32.257812 C 51.203125 32.082031 51.042969 31.960938 50.859375 31.960938 L 48.925781 31.964844 L 48.332031 30.121094 C 48.273438 29.945312 48.109375 29.824219 47.925781 29.824219 C 47.742188 29.824219 47.582031 29.945312 47.523438 30.121094 L 46.929688 31.964844 L 45 31.960938 C 44.816406 31.960938 44.652344 32.082031 44.59375 32.257812 C 44.539062 32.433594 44.601562 32.625 44.75 32.734375 L 46.316406 33.871094 L 45.714844 35.710938 C 45.65625 35.886719 45.71875 36.082031 45.867188 36.1875 C 45.941406 36.242188 46.027344 36.269531 46.117188 36.269531 C 46.203125 36.269531 46.292969 36.242188 46.367188 36.1875 L 47.925781 35.046875 L 49.488281 36.1875 C 49.636719 36.296875 49.839844 36.296875 49.988281 36.1875 C 50.136719 36.082031 50.199219 35.886719 50.140625 35.710938 L 49.542969 33.871094 L 51.105469 32.734375 C 51.253906 32.625 51.316406 32.433594 51.261719 32.257812 Z M 48.792969 33.363281 C 48.644531 33.46875 48.582031 33.664062 48.640625 33.839844 L 48.929688 34.726562 L 48.175781 34.175781 C 48.101562 34.121094 48.015625 34.09375 47.925781 34.09375 C 47.839844 34.09375 47.753906 34.121094 47.679688 34.175781 L 46.929688 34.722656 L 47.21875 33.839844 C 47.273438 33.664062 47.210938 33.46875 47.0625 33.363281 L 46.308594 32.816406 L 47.238281 32.816406 C 47.421875 32.816406 47.585938 32.699219 47.644531 32.523438 L 47.929688 31.632812 L 48.214844 32.523438 C 48.269531 32.699219 48.433594 32.816406 48.617188 32.816406 L 49.546875 32.816406 Z M 40.664062 26.796875 C 40.609375 26.972656 40.671875 27.164062 40.820312 27.273438 L 42.386719 28.410156 L 41.785156 30.253906 C 41.726562 30.425781 41.789062 30.621094 41.9375 30.726562 C 42.085938 30.835938 42.289062 30.835938 42.4375 30.726562 L 44 29.585938 L 45.558594 30.726562 C 45.632812 30.78125 45.722656 30.808594 45.808594 30.808594 C 45.898438 30.808594 45.984375 30.78125 46.058594 30.726562 C 46.207031 30.621094 46.269531 30.425781 46.210938 30.253906 L 45.613281 28.410156 L 47.175781 27.273438 C 47.324219 27.164062 47.386719 26.972656 47.332031 26.796875 C 47.273438 26.621094 47.109375 26.503906 46.925781 26.503906 L 44.996094 26.507812 L 44.402344 24.660156 C 44.34375 24.484375 44.183594 24.367188 44 24.367188 C 43.816406 24.367188 43.652344 24.484375 43.59375 24.660156 L 43 26.507812 L 41.070312 26.503906 L 41.066406 26.503906 C 40.882812 26.503906 40.722656 26.621094 40.664062 26.796875 Z M 43.308594 27.359375 C 43.492188 27.359375 43.65625 27.238281 43.710938 27.0625 L 44 26.175781 L 44.28125 27.0625 C 44.339844 27.238281 44.503906 27.359375 44.6875 27.359375 L 45.617188 27.355469 L 44.863281 27.902344 C 44.714844 28.011719 44.652344 28.203125 44.710938 28.378906 L 45 29.265625 L 44.25 28.714844 C 44.097656 28.605469 43.898438 28.605469 43.75 28.714844 L 42.996094 29.265625 L 43.285156 28.378906 C 43.34375 28.203125 43.28125 28.011719 43.132812 27.902344 L 42.378906 27.355469 Z M 34.269531 25.40625 L 35.835938 26.542969 L 35.234375 28.386719 C 35.175781 28.5625 35.238281 28.753906 35.386719 28.863281 C 35.535156 28.96875 35.738281 28.96875 35.886719 28.863281 L 37.449219 27.71875 L 39.007812 28.863281 C 39.082031 28.917969 39.171875 28.945312 39.257812 28.945312 C 39.347656 28.945312 39.433594 28.917969 39.507812 28.863281 C 39.65625 28.753906 39.71875 28.5625 39.660156 28.386719 L 39.058594 26.542969 L 40.625 25.40625 C 40.773438 25.296875 40.835938 25.105469 40.78125 24.929688 C 40.722656 24.753906 40.558594 24.636719 40.375 24.636719 L 38.445312 24.640625 L 37.851562 22.792969 C 37.792969 22.617188 37.632812 22.5 37.449219 22.5 C 37.265625 22.5 37.101562 22.617188 37.042969 22.792969 L 36.449219 24.640625 L 34.519531 24.636719 L 34.515625 24.636719 C 34.332031 24.636719 34.171875 24.753906 34.113281 24.929688 C 34.058594 25.105469 34.121094 25.296875 34.269531 25.40625 Z M 36.757812 25.488281 C 36.941406 25.488281 37.105469 25.371094 37.160156 25.195312 L 37.445312 24.308594 L 37.730469 25.195312 C 37.789062 25.371094 37.953125 25.488281 38.136719 25.488281 L 39.066406 25.488281 L 38.3125 26.035156 C 38.164062 26.144531 38.101562 26.335938 38.15625 26.511719 L 38.445312 27.398438 L 37.695312 26.847656 C 37.546875 26.742188 37.347656 26.742188 37.199219 26.847656 L 36.445312 27.398438 L 36.734375 26.511719 C 36.792969 26.335938 36.730469 26.144531 36.582031 26.035156 L 35.828125 25.488281 Z M 29.027344 36.1875 C 29.175781 36.082031 29.238281 35.886719 29.179688 35.710938 L 28.578125 33.871094 L 30.144531 32.734375 C 30.292969 32.625 30.355469 32.433594 30.300781 32.257812 C 30.242188 32.082031 30.082031 31.964844 29.898438 31.964844 L 27.964844 31.964844 L 27.367188 30.121094 C 27.3125 29.945312 27.148438 29.824219 26.964844 29.824219 C 26.78125 29.824219 26.621094 29.945312 26.5625 30.121094 L 25.96875 31.964844 L 24.035156 31.964844 C 23.851562 31.964844 23.691406 32.082031 23.632812 32.257812 C 23.578125 32.433594 23.640625 32.625 23.789062 32.734375 L 25.355469 33.871094 L 24.753906 35.710938 C 24.695312 35.886719 24.757812 36.082031 24.90625 36.1875 C 24.980469 36.242188 25.066406 36.269531 25.15625 36.269531 C 25.242188 36.269531 25.332031 36.242188 25.40625 36.1875 L 26.964844 35.046875 L 28.527344 36.1875 C 28.675781 36.296875 28.878906 36.296875 29.027344 36.1875 Z M 27.214844 34.175781 C 27.140625 34.121094 27.054688 34.09375 26.964844 34.09375 C 26.878906 34.09375 26.789062 34.121094 26.714844 34.175781 L 25.964844 34.722656 L 26.253906 33.839844 C 26.3125 33.664062 26.25 33.46875 26.101562 33.363281 L 25.347656 32.816406 L 26.277344 32.816406 C 26.460938 32.816406 26.625 32.699219 26.679688 32.523438 L 26.964844 31.632812 L 27.253906 32.523438 C 27.308594 32.699219 27.472656 32.816406 27.65625 32.816406 L 28.585938 32.816406 L 27.832031 33.363281 C 27.683594 33.46875 27.621094 33.664062 27.679688 33.839844 L 27.96875 34.726562 Z M 27.71875 27.273438 L 29.285156 28.410156 L 28.683594 30.253906 C 28.625 30.425781 28.6875 30.621094 28.835938 30.726562 C 28.910156 30.78125 29 30.808594 29.085938 30.808594 C 29.171875 30.808594 29.261719 30.78125 29.335938 30.726562 L 30.894531 29.585938 L 32.457031 30.726562 C 32.605469 30.835938 32.804688 30.835938 32.953125 30.726562 C 33.101562 30.621094 33.164062 30.425781 33.109375 30.253906 L 32.507812 28.410156 L 34.074219 27.273438 C 34.222656 27.164062 34.285156 26.972656 34.226562 26.796875 C 34.171875 26.621094 34.007812 26.503906 33.824219 26.503906 L 31.890625 26.507812 L 31.300781 24.660156 C 31.242188 24.484375 31.082031 24.367188 30.898438 24.367188 C 30.710938 24.367188 30.550781 24.484375 30.492188 24.660156 L 29.898438 26.507812 L 27.964844 26.503906 C 27.78125 26.503906 27.621094 26.621094 27.5625 26.796875 C 27.507812 26.972656 27.570312 27.164062 27.71875 27.273438 Z M 30.207031 27.359375 C 30.390625 27.359375 30.554688 27.238281 30.609375 27.0625 L 30.894531 26.175781 L 31.179688 27.0625 C 31.238281 27.238281 31.402344 27.359375 31.585938 27.359375 L 32.511719 27.355469 L 31.761719 27.902344 C 31.613281 28.011719 31.550781 28.203125 31.605469 28.378906 L 31.894531 29.265625 L 31.144531 28.714844 C 30.996094 28.605469 30.796875 28.605469 30.648438 28.714844 L 29.894531 29.265625 L 30.183594 28.378906 C 30.242188 28.203125 30.179688 28.011719 30.03125 27.902344 L 29.277344 27.355469 Z M 39.886719 40.679688 C 41.820312 39.761719 43.160156 37.785156 43.160156 35.5 C 43.160156 32.335938 40.597656 29.765625 37.449219 29.765625 C 34.296875 29.765625 31.738281 32.335938 31.738281 35.5 C 31.738281 37.785156 33.074219 39.761719 35.007812 40.679688 C 33.28125 41.125 31.699219 42.035156 30.414062 43.351562 C 28.59375 45.214844 27.59375 47.671875 27.59375 50.265625 L 27.59375 52.074219 C 27.59375 52.308594 27.78125 52.5 28.015625 52.5 L 28.082031 52.5 C 28.085938 52.5 28.085938 52.5 28.085938 52.5 L 46.808594 52.5 C 46.808594 52.5 46.8125 52.5 46.8125 52.5 L 46.878906 52.5 C 47.113281 52.5 47.300781 52.308594 47.300781 52.074219 L 47.300781 50.265625 C 47.300781 47.671875 46.300781 45.214844 44.480469 43.351562 C 43.195312 42.035156 41.613281 41.125 39.886719 40.679688 Z M 32.585938 35.5 C 32.585938 32.804688 34.765625 30.613281 37.449219 30.613281 C 40.128906 30.613281 42.3125 32.804688 42.3125 35.5 C 42.3125 38.121094 40.238281 40.269531 37.652344 40.375 L 37.242188 40.375 C 34.65625 40.269531 32.585938 38.121094 32.585938 35.5 Z M 37.226562 41.226562 C 37.300781 41.230469 37.375 41.230469 37.449219 41.230469 C 37.519531 41.230469 37.59375 41.230469 37.667969 41.226562 C 41.953125 41.332031 45.53125 44.507812 46.300781 48.613281 L 43.984375 47.988281 L 43.984375 46.503906 C 43.984375 46.265625 43.792969 46.078125 43.558594 46.078125 C 43.324219 46.078125 43.136719 46.265625 43.136719 46.503906 L 43.136719 47.761719 L 41.847656 47.414062 L 41.949219 47.210938 C 42.1875 46.726562 42.179688 46.207031 41.929688 45.789062 L 41.371094 44.839844 C 41.316406 44.28125 41.070312 43.734375 40.632812 43.308594 C 39.757812 42.457031 38.429688 42.785156 37.449219 43.492188 C 36.445312 42.765625 35.144531 42.453125 34.261719 43.308594 C 33.824219 43.734375 33.578125 44.28125 33.523438 44.84375 L 32.964844 45.789062 C 32.714844 46.207031 32.707031 46.726562 32.945312 47.210938 L 33.046875 47.414062 L 31.757812 47.761719 L 31.757812 46.503906 C 31.757812 46.265625 31.566406 46.078125 31.332031 46.078125 C 31.101562 46.078125 30.910156 46.265625 30.910156 46.503906 L 30.910156 47.988281 L 28.59375 48.613281 C 29.363281 44.511719 32.941406 41.332031 37.226562 41.226562 Z M 28.4375 50.265625 C 28.4375 50.015625 28.449219 49.769531 28.46875 49.527344 L 33.429688 48.191406 L 34.300781 49.960938 L 28.4375 51.539062 Z M 41.203125 46.222656 C 41.332031 46.441406 41.265625 46.675781 41.1875 46.835938 L 40.863281 47.496094 C 40.863281 47.5 40.859375 47.503906 40.855469 47.507812 L 39.761719 49.738281 L 38.105469 49.292969 L 40.730469 46.734375 C 40.738281 46.730469 40.746094 46.722656 40.75 46.714844 C 40.914062 46.535156 41.046875 46.335938 41.144531 46.125 Z M 40.132812 46.136719 L 37.449219 48.746094 L 34.761719 46.136719 C 34.480469 45.816406 34.347656 45.417969 34.359375 45.019531 C 34.363281 45.003906 34.363281 44.988281 34.363281 44.972656 C 34.386719 44.585938 34.550781 44.210938 34.851562 43.917969 C 35.433594 43.355469 36.460938 43.75 37.171875 44.355469 C 37.332031 44.488281 37.5625 44.488281 37.722656 44.355469 C 38.433594 43.75 39.460938 43.355469 40.042969 43.917969 C 40.660156 44.523438 40.699219 45.492188 40.132812 46.136719 Z M 34.140625 46.714844 C 34.148438 46.722656 34.15625 46.730469 34.160156 46.734375 L 36.789062 49.292969 L 35.136719 49.738281 L 34.039062 47.507812 C 34.035156 47.503906 34.035156 47.5 34.03125 47.496094 L 33.707031 46.835938 C 33.628906 46.675781 33.5625 46.441406 33.691406 46.222656 L 33.75 46.125 C 33.847656 46.335938 33.980469 46.535156 34.140625 46.714844 Z M 35.019531 50.648438 L 37.449219 49.996094 L 39.875 50.648438 L 43.59375 51.648438 L 31.300781 51.648438 Z M 40.59375 49.960938 L 41.464844 48.191406 L 46.421875 49.527344 C 46.445312 49.769531 46.453125 50.015625 46.453125 50.265625 L 46.453125 51.539062 Z M 40.59375 49.960938 " fill-opacity="1" fill-rule="nonzero"/></g></svg>