<svg xmlns="http://www.w3.org/2000/svg" xmlns:xlink="http://www.w3.org/1999/xlink" width="100" zoomAndPan="magnify" viewBox="0 0 75 74.999997" height="100" preserveAspectRatio="xMidYMid meet" version="1.0"><defs><clipPath id="df6ec74f77"><path d="M 34 50 L 41 50 L 41 52.5 L 34 52.5 Z M 34 50 " clip-rule="nonzero"/></clipPath><clipPath id="a630368468"><path d="M 23.210938 36 L 27 36 L 27 38 L 23.210938 38 Z M 23.210938 36 " clip-rule="nonzero"/></clipPath><clipPath id="34a16433ad"><path d="M 47 36 L 51.710938 36 L 51.710938 38 L 47 38 Z M 47 36 " clip-rule="nonzero"/></clipPath><clipPath id="eded555bb1"><path d="M 36 22.5 L 39 22.5 L 39 27 L 36 27 Z M 36 22.5 " clip-rule="nonzero"/></clipPath></defs><rect x="-7.5" width="90" fill="#ffffff" y="-7.5" height="89.999996" fill-opacity="1"/><rect x="-7.5" width="90" fill="#ffffff" y="-7.5" height="89.999996" fill-opacity="1"/><path fill="#000000" d="M 37.464844 29 C 33.316406 29 29.800781 32.195312 29.554688 36.339844 C 29.449219 38.144531 29.851562 39.417969 30.371094 40.578125 C 31.003906 41.984375 32.371094 43.53125 32.925781 44.378906 C 33.246094 44.871094 33.671875 45.457031 33.855469 46.328125 L 37.464844 46.328125 Z M 37.464844 29 " fill-opacity="1" fill-rule="nonzero"/><path fill="#000000" d="M 34.199219 50.277344 C 34.226562 50.273438 34.25 50.261719 34.277344 50.261719 L 40.648438 50.261719 C 40.675781 50.261719 40.699219 50.273438 40.726562 50.277344 C 40.886719 49.875 40.980469 49.4375 40.980469 48.972656 L 33.945312 48.972656 C 33.949219 49.433594 34.039062 49.875 34.199219 50.277344 Z M 34.199219 50.277344 " fill-opacity="1" fill-rule="nonzero"/><path fill="#000000" d="M 33.945312 47.046875 L 33.945312 48.296875 L 40.980469 48.296875 L 40.980469 47.046875 C 40.980469 47.035156 40.980469 47.023438 40.984375 47.007812 L 33.941406 47.007812 C 33.941406 47.023438 33.945312 47.035156 33.945312 47.046875 Z M 33.945312 47.046875 " fill-opacity="1" fill-rule="nonzero"/><g clip-path="url(#df6ec74f77)"><path fill="#000000" d="M 37.460938 52.488281 L 37.472656 52.488281 C 38.683594 52.488281 39.75 51.875 40.378906 50.941406 L 34.550781 50.941406 C 35.183594 51.875 36.25 52.488281 37.460938 52.488281 Z M 37.460938 52.488281 " fill-opacity="1" fill-rule="nonzero"/></g><g clip-path="url(#a630368468)"><path fill="#000000" d="M 26.394531 36.226562 L 23.777344 36.226562 C 23.464844 36.226562 23.210938 36.480469 23.210938 36.792969 C 23.210938 37.105469 23.464844 37.359375 23.777344 37.359375 L 26.394531 37.359375 C 26.707031 37.359375 26.960938 37.105469 26.960938 36.792969 C 26.960938 36.480469 26.707031 36.226562 26.394531 36.226562 Z M 26.394531 36.226562 " fill-opacity="1" fill-rule="nonzero"/></g><g clip-path="url(#34a16433ad)"><path fill="#000000" d="M 51.148438 36.226562 L 48.53125 36.226562 C 48.21875 36.226562 47.964844 36.480469 47.964844 36.792969 C 47.964844 37.105469 48.21875 37.359375 48.53125 37.359375 L 51.148438 37.359375 C 51.460938 37.359375 51.710938 37.105469 51.710938 36.792969 C 51.710938 36.480469 51.460938 36.226562 51.148438 36.226562 Z M 51.148438 36.226562 " fill-opacity="1" fill-rule="nonzero"/></g><g clip-path="url(#eded555bb1)"><path fill="#000000" d="M 37.460938 26.265625 C 37.773438 26.265625 38.027344 26.011719 38.027344 25.699219 L 38.027344 23.074219 C 38.027344 22.761719 37.773438 22.507812 37.460938 22.507812 C 37.152344 22.507812 36.898438 22.761719 36.898438 23.074219 L 36.898438 25.699219 C 36.898438 26.011719 37.152344 26.265625 37.460938 26.265625 Z M 37.460938 26.265625 " fill-opacity="1" fill-rule="nonzero"/></g><path fill="#000000" d="M 29.238281 44.238281 L 27.386719 46.09375 C 27.164062 46.316406 27.164062 46.671875 27.386719 46.894531 C 27.496094 47.003906 27.640625 47.058594 27.785156 47.058594 C 27.929688 47.058594 28.074219 47.003906 28.183594 46.894531 L 30.035156 45.039062 C 30.257812 44.816406 30.257812 44.460938 30.035156 44.238281 C 29.816406 44.019531 29.457031 44.019531 29.238281 44.238281 Z M 29.238281 44.238281 " fill-opacity="1" fill-rule="nonzero"/><path fill="#000000" d="M 46.742188 26.691406 L 44.890625 28.546875 C 44.667969 28.769531 44.667969 29.128906 44.890625 29.347656 C 45 29.457031 45.144531 29.515625 45.289062 29.515625 C 45.433594 29.515625 45.578125 29.457031 45.6875 29.347656 L 47.539062 27.492188 C 47.757812 27.273438 47.757812 26.914062 47.539062 26.691406 C 47.316406 26.472656 46.960938 26.472656 46.742188 26.691406 Z M 46.742188 26.691406 " fill-opacity="1" fill-rule="nonzero"/><path fill="#000000" d="M 29.238281 29.347656 C 29.347656 29.457031 29.492188 29.515625 29.636719 29.515625 C 29.78125 29.515625 29.925781 29.457031 30.035156 29.347656 C 30.257812 29.128906 30.257812 28.769531 30.035156 28.546875 L 28.183594 26.691406 C 27.964844 26.472656 27.605469 26.472656 27.386719 26.691406 C 27.164062 26.914062 27.164062 27.273438 27.386719 27.492188 Z M 29.238281 29.347656 " fill-opacity="1" fill-rule="nonzero"/><path fill="#000000" d="M 45.6875 44.238281 C 45.46875 44.019531 45.109375 44.019531 44.890625 44.238281 C 44.667969 44.460938 44.667969 44.816406 44.890625 45.039062 L 46.742188 46.894531 C 46.851562 47.003906 46.996094 47.058594 47.140625 47.058594 C 47.285156 47.058594 47.429688 47.003906 47.539062 46.894531 C 47.757812 46.671875 47.757812 46.316406 47.539062 46.09375 Z M 45.6875 44.238281 " fill-opacity="1" fill-rule="nonzero"/><path fill="#000000" d="M 43.628906 41.359375 C 43.78125 41.132812 44.046875 41.011719 44.316406 41.046875 L 45.425781 41.191406 C 45.742188 41.234375 46.046875 41.054688 46.160156 40.757812 C 46.269531 40.476562 46.363281 40.1875 46.445312 39.890625 C 46.527344 39.582031 46.382812 39.257812 46.105469 39.105469 L 45.121094 38.570312 C 44.878906 38.441406 44.738281 38.179688 44.75 37.90625 C 44.753906 37.820312 44.753906 37.738281 44.753906 37.652344 C 44.753906 37.570312 44.753906 37.484375 44.75 37.402344 C 44.738281 37.125 44.878906 36.867188 45.121094 36.734375 L 46.105469 36.203125 C 46.382812 36.050781 46.527344 35.722656 46.445312 35.417969 C 46.363281 35.121094 46.269531 34.832031 46.160156 34.546875 C 46.046875 34.25 45.742188 34.074219 45.425781 34.113281 L 44.316406 34.261719 C 44.046875 34.296875 43.78125 34.171875 43.628906 33.945312 C 43.535156 33.804688 43.433594 33.664062 43.328125 33.527344 C 43.160156 33.3125 43.125 33.023438 43.242188 32.777344 L 43.722656 31.765625 C 43.859375 31.480469 43.785156 31.132812 43.539062 30.933594 C 43.304688 30.742188 43.058594 30.5625 42.800781 30.394531 C 42.535156 30.222656 42.183594 30.257812 41.953125 30.476562 L 41.144531 31.246094 C 40.945312 31.433594 40.65625 31.492188 40.402344 31.394531 C 40.242188 31.335938 40.078125 31.285156 39.914062 31.238281 C 39.648438 31.164062 39.453125 30.949219 39.402344 30.679688 L 39.199219 29.578125 C 39.140625 29.265625 38.878906 29.03125 38.5625 29.011719 C 38.410156 29.003906 38.257812 29 38.105469 29 L 38.105469 33.699219 C 40.28125 33.699219 42.050781 35.46875 42.050781 37.652344 C 42.050781 39.839844 40.28125 41.609375 38.105469 41.609375 L 38.105469 46.308594 C 38.257812 46.308594 38.410156 46.304688 38.5625 46.292969 C 38.878906 46.277344 39.140625 46.039062 39.199219 45.726562 L 39.402344 44.628906 C 39.453125 44.359375 39.648438 44.144531 39.914062 44.070312 C 40.078125 44.023438 40.242188 43.96875 40.402344 43.910156 C 40.65625 43.816406 40.945312 43.871094 41.144531 44.0625 L 41.953125 44.832031 C 42.183594 45.050781 42.535156 45.085938 42.800781 44.914062 C 43.058594 44.746094 43.304688 44.566406 43.539062 44.375 C 43.785156 44.175781 43.859375 43.828125 43.722656 43.539062 L 43.242188 42.53125 C 43.125 42.285156 43.160156 41.992188 43.328125 41.777344 C 43.433594 41.644531 43.535156 41.503906 43.628906 41.359375 Z M 43.628906 41.359375 " fill-opacity="1" fill-rule="nonzero"/></svg>