<svg xmlns="http://www.w3.org/2000/svg" xmlns:xlink="http://www.w3.org/1999/xlink" width="100" zoomAndPan="magnify" viewBox="0 0 75 74.999997" height="100" preserveAspectRatio="xMidYMid meet" version="1.0"><defs><clipPath id="dc91e53eeb"><path d="M 47 30 L 52.4375 30 L 52.4375 43 L 47 43 Z M 47 30 " clip-rule="nonzero"/></clipPath><clipPath id="1c3457077c"><path d="M 26.1875 21.480469 L 51 21.480469 L 51 38 L 26.1875 38 Z M 26.1875 21.480469 " clip-rule="nonzero"/></clipPath><clipPath id="4822f4b681"><path d="M 31 35 L 47 35 L 47 51.480469 L 31 51.480469 Z M 31 35 " clip-rule="nonzero"/></clipPath></defs><rect x="-7.5" width="90" fill="#ffffff" y="-7.5" height="89.999996" fill-opacity="1"/><rect x="-7.5" width="90" fill="#ffffff" y="-7.5" height="89.999996" fill-opacity="1"/><g clip-path="url(#dc91e53eeb)"><path fill="#000000" d="M 52.226562 31.296875 L 50.976562 30.269531 C 50.859375 30.175781 50.71875 30.128906 50.578125 30.175781 C 50.433594 30.199219 50.316406 30.3125 50.246094 30.429688 L 49.609375 31.832031 C 49.515625 32.066406 49.609375 32.347656 49.847656 32.441406 C 50.082031 32.53125 50.363281 32.441406 50.457031 32.207031 L 50.507812 32.089844 C 50.578125 32.601562 50.625 33.117188 50.625 33.652344 C 50.625 36.550781 49.515625 39.1875 47.679688 41.195312 L 47.679688 42.527344 C 50.082031 40.308594 51.566406 37.15625 51.566406 33.652344 C 51.566406 33.046875 51.519531 32.441406 51.425781 31.855469 L 51.613281 32.019531 C 51.800781 32.183594 52.109375 32.160156 52.273438 31.949219 C 52.4375 31.738281 52.414062 31.457031 52.226562 31.296875 Z M 52.226562 31.296875 " fill-opacity="1" fill-rule="nonzero"/></g><g clip-path="url(#1c3457077c)"><path fill="#000000" d="M 28.402344 37.109375 L 29.039062 35.707031 C 29.132812 35.476562 29.039062 35.195312 28.804688 35.101562 C 28.566406 35.007812 28.285156 35.101562 28.191406 35.335938 L 28.167969 35.40625 C 28.050781 34.820312 28.003906 34.238281 28.003906 33.652344 C 28.003906 27.464844 33.070312 22.445312 39.3125 22.445312 C 44.074219 22.445312 48.148438 25.363281 49.824219 29.472656 C 49.988281 29.355469 50.152344 29.261719 50.339844 29.238281 C 50.457031 29.214844 50.601562 29.191406 50.71875 29.214844 C 48.925781 24.710938 44.496094 21.511719 39.3125 21.511719 C 32.550781 21.511719 27.058594 26.953125 27.058594 33.652344 C 27.058594 34.355469 27.128906 35.03125 27.25 35.707031 L 27.011719 35.523438 C 26.824219 35.359375 26.519531 35.382812 26.351562 35.59375 C 26.1875 35.777344 26.210938 36.082031 26.421875 36.246094 C 26.421875 36.246094 27.671875 37.273438 27.671875 37.273438 C 27.789062 37.367188 27.933594 37.390625 28.074219 37.367188 C 28.214844 37.34375 28.332031 37.25 28.402344 37.109375 Z M 28.402344 37.109375 " fill-opacity="1" fill-rule="nonzero"/></g><g clip-path="url(#4822f4b681)"><path fill="#000000" d="M 46.003906 38.558594 L 39.855469 35.640625 C 39.523438 35.476562 39.125 35.476562 38.792969 35.640625 L 32.621094 38.558594 C 32.171875 38.769531 31.890625 39.234375 31.890625 39.726562 L 31.890625 47.363281 C 31.890625 47.875 32.195312 48.34375 32.644531 48.53125 L 38.792969 51.308594 C 39.125 51.449219 39.5 51.449219 39.832031 51.308594 L 46.003906 48.53125 C 46.453125 48.320312 46.757812 47.851562 46.757812 47.363281 L 46.757812 39.726562 C 46.734375 39.210938 46.453125 38.769531 46.003906 38.558594 Z M 39.195312 36.480469 C 39.265625 36.433594 39.359375 36.433594 39.453125 36.480469 L 45.296875 39.257812 L 43.175781 40.167969 L 37.121094 37.460938 C 37.121094 37.460938 39.171875 36.480469 39.195312 36.480469 Z M 33.328125 39.257812 L 36.015625 37.972656 L 42.023438 40.660156 L 39.3125 41.828125 Z M 45.792969 47.339844 C 45.792969 47.480469 45.722656 47.617188 45.605469 47.664062 L 39.785156 50.28125 L 39.785156 42.667969 L 42.519531 41.476562 L 42.519531 42.667969 C 42.519531 42.925781 42.730469 43.136719 42.988281 43.136719 C 43.25 43.136719 43.460938 42.925781 43.460938 42.667969 L 43.460938 41.082031 L 45.792969 40.074219 Z M 45.792969 47.339844 " fill-opacity="1" fill-rule="nonzero"/></g><path fill="#000000" d="M 28.285156 38.277344 C 28.191406 38.300781 28.097656 38.324219 28.003906 38.324219 C 28.6875 39.9375 29.699219 41.359375 30.949219 42.527344 L 30.949219 41.195312 C 30.101562 40.261719 29.394531 39.1875 28.875 37.996094 C 28.710938 38.136719 28.496094 38.230469 28.285156 38.277344 Z M 28.285156 38.277344 " fill-opacity="1" fill-rule="nonzero"/><path fill="#000000" d="M 39.3125 24.429688 C 34.105469 24.429688 29.886719 28.609375 29.886719 33.769531 C 29.886719 35.546875 30.382812 37.203125 31.253906 38.605469 C 31.464844 38.230469 31.796875 37.902344 32.21875 37.71875 C 32.21875 37.71875 34.246094 36.761719 34.246094 36.761719 C 34.082031 36.316406 33.679688 36.035156 33.351562 35.777344 C 33.070312 35.570312 32.785156 35.382812 32.761719 35.171875 C 32.714844 34.890625 32.714844 34.589844 32.761719 34.261719 C 32.785156 34.074219 32.714844 33.886719 32.644531 33.746094 C 32.527344 33.535156 32.339844 33.351562 32.125 33.257812 C 31.75 33.070312 31.324219 33 30.925781 33 C 30.972656 32.460938 31.089844 31.925781 31.230469 31.410156 C 31.207031 31.480469 31.820312 31.550781 31.914062 31.550781 C 32.621094 31.503906 33.09375 30.945312 33.328125 30.664062 C 33.609375 30.3125 34.035156 30.152344 34.433594 29.964844 C 34.789062 29.800781 35.261719 29.519531 35.472656 28.9375 C 35.707031 28.257812 35.566406 27.207031 35.164062 26.507812 C 36.414062 25.808594 37.851562 25.386719 39.382812 25.386719 C 39.996094 25.386719 40.585938 25.457031 41.152344 25.574219 C 41.035156 25.761719 40.9375 26.0625 41.058594 26.484375 C 41.058594 26.507812 41.105469 26.8125 41.105469 26.8125 C 40.773438 26.835938 39.148438 27.019531 39.007812 28.003906 C 39.007812 28.074219 38.984375 28.140625 38.9375 28.210938 C 38.890625 28.28125 38.84375 28.304688 38.769531 28.328125 C 38.628906 28.398438 38.417969 28.492188 38.300781 28.679688 C 37.992188 29.125 38.0625 29.472656 38.183594 29.660156 C 38.488281 30.199219 39.3125 30.199219 39.925781 30.199219 C 40.019531 30.199219 40.253906 30.199219 40.253906 30.199219 C 40.703125 30.222656 41.152344 30.222656 41.480469 30.382812 C 41.765625 30.523438 41.859375 30.757812 41.835938 30.898438 C 41.789062 31.0625 41.527344 31.0625 41.410156 31.0625 C 41.058594 31.039062 40.585938 30.992188 40.445312 30.96875 C 39.691406 30.757812 38.769531 30.476562 37.78125 30.710938 C 36.699219 30.96875 35.824219 31.949219 35.707031 33 C 35.636719 33.675781 35.871094 34.355469 36.367188 34.867188 C 36.601562 35.101562 36.863281 35.289062 37.167969 35.40625 L 38.441406 34.796875 C 38.722656 34.65625 39.054688 34.589844 39.382812 34.589844 C 39.714844 34.589844 40.019531 34.65625 40.328125 34.796875 C 40.328125 34.796875 44.238281 36.644531 44.238281 36.644531 C 44.238281 36.644531 44.238281 36.644531 44.238281 36.621094 C 44.332031 36.386719 44.519531 36.152344 44.710938 35.917969 C 44.804688 35.800781 45.15625 35.3125 45.226562 35.195312 C 45.25 35.148438 45.296875 35.078125 45.320312 35.03125 C 45.417969 34.867188 45.582031 34.609375 45.488281 34.308594 C 45.441406 34.167969 45.320312 34.003906 45.0625 33.886719 C 44.96875 33.863281 44.875 33.816406 44.804688 33.792969 C 44.613281 33.746094 44.472656 33.699219 44.378906 33.605469 C 44.144531 33.421875 44.003906 33.070312 44.074219 32.882812 C 44.097656 32.835938 44.191406 32.765625 44.261719 32.742188 C 44.542969 33 44.921875 33.140625 45.320312 33.117188 C 45.722656 33.070312 46.097656 32.859375 46.359375 32.507812 C 46.5 32.324219 46.5 32.089844 46.523438 31.925781 C 46.546875 31.761719 46.546875 31.667969 46.59375 31.621094 C 46.640625 31.574219 46.855469 31.480469 47.609375 31.550781 C 47.796875 32.253906 47.914062 33 47.914062 33.746094 C 47.914062 35.242188 47.511719 36.644531 46.828125 37.859375 C 46.902344 37.902344 46.972656 37.949219 47.042969 38.019531 C 47.230469 38.183594 47.371094 38.371094 47.488281 38.582031 C 48.363281 37.179688 48.855469 35.523438 48.855469 33.746094 C 48.738281 28.609375 44.519531 24.429688 39.3125 24.429688 Z M 39.3125 24.429688 " fill-opacity="1" fill-rule="nonzero"/></svg>